<svg id="Layer_1" data-name="Layer 1" xmlns="http://www.w3.org/2000/svg" viewBox="0 0 3655 732"><defs><style>.cls-1{fill:#9bbff2;}.cls-2{fill:#135cc5;}.cls-3{fill:#061993;}.cls-4{fill:#2d2d2d;}</style></defs><circle class="cls-1" cx="482.92" cy="367.41" r="319.01"/><polygon class="cls-2" points="573.1 604.48 567.5 604.48 567.18 603.82 402.51 603.82 395.32 589.98 395.06 589.98 344.3 492.17 293.54 589.98 293.28 589.98 286.09 603.82 121.41 603.82 121.1 604.48 115.5 604.48 123.05 590.08 123.4 590.25 220.07 404.01 219.67 404.01 303.53 242.44 385.07 242.44 468.93 404.01 468.52 404.01 565.19 590.25 565.55 590.08 573.1 604.48"/><polygon class="cls-3" points="744.06 102.63 744.06 603.49 584.44 603.49 438.75 327.95 438.65 327.95 418.61 290.06 418.61 290.05 417.81 288.54 412.55 278.59 412.48 278.46 412.44 278.39 412.41 278.32 412.36 278.24 388.9 233.87 320.19 233.87 320.19 234.36 305.69 234.36 305.69 102.47 474.41 102.47 498.8 148.61 498.91 148.61 520.17 188.82 520.17 188.82 520.84 190.09 523.9 195.89 588.54 318.13 588.54 207.17 587.86 207.52 588.09 195.89 588.54 173.71 589.05 148.61 589.98 102.47 732.64 102.47 732.63 102.63 744.06 102.63"/><path class="cls-4" d="M1206,531h-65.44l-29.91-58.43-71.52-140.22L967.65,472.57,937.74,531H872.3l29.91-58.43,137-268.75,136.95,268.75Z"/><path class="cls-4" d="M1687,335.16,1828.61,531h-72L1643.52,374.88l-82.73,75.26V531h-58.42V203.82h58.42V371.15l48.14-43.94,43.47-39.73,91.15-83.66H1830Z"/><path class="cls-4" d="M2195.3,531h-65.44L2100,472.57l-71.51-140.22-71.52,140.22L1927,531h-65.44l29.92-58.43,137-268.75,136.94,268.75Z"/><path class="cls-4" d="M2554.27,204.05V531.23l-58.42-44.87L2285.51,324.17V531.23h-58.42V205l58.42,44.87L2495.85,412V203.58Z"/><path class="cls-4" d="M3383.91,204.28c90.21,0,163.59,72.92,163.59,163.13A162.26,162.26,0,0,1,3508.71,473c-2.81,3.27-6.08,6.54-9.35,9.81a160.62,160.62,0,0,1-115,48.15H3220.79V203.82ZM3278.74,473h105.17a105.17,105.17,0,1,0,0-210.33H3278.74Z"/><path class="cls-4" d="M3186.3,531.94h-71.41l-.76-1.05-41.51-56.77-49.2-66.26h-46.53c-1.09,0-2.15,0-3.16-.11H2947.1V354.3h35.63v.75h65.85a75.28,75.28,0,0,0,8.08-.42q18.23-2,29.64-13.1,13.82-13.51,13.84-37.42,0-27-11-37.72t-40.55-10.69H2914V502.18a43.13,43.13,0,0,1-1,9.54v19.17H2855.4V205h16.09a39.93,39.93,0,0,1,13.6-2.08h169.77q50.94,0,77.34,26.09t26.41,75.77q0,37.11-18.86,61.94-17.84,23.51-49.18,34.33l95,129.88Z"/><polygon class="cls-4" points="1295.3 260.77 1295.3 332.04 1435.21 332.04 1435.21 389.68 1295.3 389.68 1295.3 531.68 1237.66 531.68 1237.66 204.71 1238.18 204.71 1238.18 203.13 1470.84 203.13 1470.84 260.77 1295.3 260.77"/><polygon class="cls-4" points="2645.77 260.77 2645.77 339.37 2785.67 339.37 2785.67 397.01 2645.77 397.01 2645.77 473.51 2821.31 473.51 2821.31 531.15 2645.77 531.15 2645.77 531.68 2588.13 531.68 2588.13 204.71 2588.65 204.71 2588.65 203.13 2821.31 203.13 2821.31 260.77 2645.77 260.77"/></svg>