<svg id="Layer_1" data-name="Layer 1" xmlns="http://www.w3.org/2000/svg" viewBox="0 0 3127 2078"><defs><style>.cls-1{fill:#9bbff2;}.cls-2{fill:#135cc5;}.cls-3{fill:#061993;}</style></defs><circle class="cls-1" cx="1685.15" cy="1107.5" r="799.5"/><polygon class="cls-2" points="1911.16 1701.65 1897.12 1701.65 1896.34 1700 1483.63 1700 1465.62 1665.29 1464.98 1665.29 1337.75 1420.18 1210.53 1665.29 1209.89 1665.29 1191.87 1700 779.17 1700 778.39 1701.65 764.35 1701.65 783.26 1665.55 784.16 1665.98 1026.43 1199.23 1025.41 1199.23 1235.58 794.31 1439.93 794.31 1650.1 1199.23 1649.08 1199.23 1891.35 1665.98 1892.24 1665.55 1911.16 1701.65"/><polygon class="cls-3" points="2339.63 443.94 2339.63 1699.17 1939.59 1699.17 1574.47 1008.61 1574.2 1008.61 1523.99 913.64 1523.99 913.64 1521.98 909.84 1508.79 884.9 1508.63 884.6 1508.53 884.41 1508.44 884.24 1508.33 884.03 1449.53 772.83 1277.34 772.83 1277.34 774.07 1240.98 774.07 1240.98 443.52 1663.82 443.52 1724.96 559.17 1725.23 559.17 1778.51 659.93 1778.51 659.94 1780.2 663.13 1787.88 677.65 1949.86 984.02 1949.86 705.93 1948.15 706.79 1948.73 677.65 1949.86 622.06 1951.13 559.17 1953.47 443.52 2310.99 443.52 2310.98 443.94 2339.63 443.94"/></svg>